<?xml version="1.0" encoding="UTF-8" standalone="no"?>
<svg
   xmlns:dc="http://purl.org/dc/elements/1.1/"
   xmlns:cc="http://creativecommons.org/ns#"
   xmlns:rdf="http://www.w3.org/1999/02/22-rdf-syntax-ns#"
   xmlns:svg="http://www.w3.org/2000/svg"
   xmlns="http://www.w3.org/2000/svg"
   xmlns:sodipodi="http://sodipodi.sourceforge.net/DTD/sodipodi-0.dtd"
   xmlns:inkscape="http://www.inkscape.org/namespaces/inkscape"
   version="1.0"
   width="88.000000pt"
   height="88.000000pt"
   viewBox="0 0 88.000000 88.000000"
   preserveAspectRatio="xMidYMid meet"
   id="svg30">
  <metadata
     id="metadata36">
    <rdf:RDF>
      <cc:Work
         rdf:about="">
        <dc:format>image/svg+xml</dc:format>
        <dc:type
           rdf:resource="http://purl.org/dc/dcmitype/StillImage" />
        <dc:title></dc:title>
      </cc:Work>
    </rdf:RDF>
  </metadata>
  <defs
     id="defs34" />
  <sodipodi:namedview
     pagecolor="#ffffff"
     bordercolor="#666666"
     borderopacity="1"
     objecttolerance="10"
     gridtolerance="10"
     guidetolerance="10"
     inkscape:pageopacity="0"
     inkscape:pageshadow="2"
     inkscape:window-width="1171"
     inkscape:window-height="830"
     id="namedview32"
     showgrid="false"
     inkscape:zoom="7.2920387"
     inkscape:cx="38.591228"
     inkscape:cy="54.564212"
     inkscape:window-x="1326"
     inkscape:window-y="501"
     inkscape:window-maximized="0"
     inkscape:current-layer="svg30" />
  <g
     transform="translate(0.000000,88.000000) scale(0.100000,-0.100000)"
     fill="#000000"
     stroke="none"
     id="g28">
    <path
       d="M225 726 c-105 -27 -183 -73 -210 -126 -10 -20 -15 -59 -15 -124 0 -86 2 -98 24 -123 22 -26 29 -28 132 -33 121 -7 129 -10 229 -86 100 -76 149 -95 241 -95 132 0 220 47 245 131 7 21 10 81 8 141 -4 91 -8 110 -31 150 -44 76 -126 126 -255 160 -89 22 -287 25 -368 5z m211 -22 l20 -5 -24 -147 -24 -147 -54 24 c-37 18 -53 30 -50 41 3 8 12 63 22 122 13 80 21 108 33 111 25 7 54 7 77 1z m-141 -26 c-6 -30 -35 -201 -35 -210 0 -5 -21 -8 -46 -8 -45 0 -46 1 -41 28 3 15 11 64 18 109 l12 82 36 9 c56 15 62 14 56 -10z m266 11 c50 -11 51 -12 45 -42 -4 -17 -9 -55 -13 -84 -5 -49 -4 -53 15 -53 18 0 22 10 33 75 6 41 14 75 16 75 6 0 67 -31 79 -41 8 -6 4 -49 -13 -151 -34 -207 -25 -188 -84 -188 -50 0 -51 0 -45 27 16 82 17 101 6 108 -19 12 -37 -14 -44 -65 -4 -28 -9 -50 -13 -50 -15 0 -92 67 -93 80 0 8 11 80 25 160 14 80 25 148 25 153 0 9 -1 9 61 -4z m-420 -126 c-9 -55 -22 -98 -29 -101 -6 -2 -25 10 -42 26 -41 41 -40 79 3 119 30 29 65 52 78 53 3 0 -2 -44 -10 -97z m679 -35 c35 -77 20 -151 -40 -201 -18 -15 -34 -26 -36 -25 -6 7 41 268 49 268 4 0 17 -19 27 -42z m-630 -109 c120 -6 153 -19 255 -100 80 -63 120 -79 192 -79 68 1 120 17 168 54 34 26 35 26 35 6 0 -65 -74 -118 -178 -127 -87 -8 -155 16 -253 88 -107 80 -128 87 -242 92 -108 3 -127 13 -127 64 0 32 1 33 23 21 12 -7 69 -15 127 -19z"
       id="path24" />
    <path
       d="M580 459 c0 -14 5 -19 17 -17 26 5 29 38 4 38 -15 0 -21 -6 -21 -21z"
       id="path26" />
  </g>
  <path
     style="fill:#ffc478;stroke-width:0.13713586;fill-opacity:0"
     d="M 81.336476,94.312832 C 81.07249,94.281995 80.270245,94.189273 79.55371,94.106783 73.497324,93.409549 67.068695,90.81704 59.970691,86.209431 58.008045,84.935396 56.513663,83.882635 52.606513,81.021519 46.913129,76.852385 44.133098,75.062771 41.087101,73.606026 36.158825,71.249085 32.370068,70.616647 20.173882,70.11509 10.657811,69.72375 7.5373865,68.814182 6.1258942,66.020262 5.5852928,64.950191 5.4372204,63.93263 5.4343983,61.268264 c -0.0023,-2.175982 0.027868,-2.521047 0.2500923,-2.860166 0.321955,-0.491307 0.6307098,-0.440041 2.3366642,0.387987 0.843337,0.409335 1.7638559,0.719563 2.8274892,0.952902 2.947315,0.646583 9.096629,1.402361 14.056425,1.727599 8.555114,0.561 11.886771,0.99324 15.359217,1.992667 5.455949,1.57031 9.374653,3.87482 17.997573,10.584005 6.125542,4.766064 8.640957,6.47213 12.095,8.203363 4.334367,2.172469 7.481113,2.905148 13.05777,3.040332 7.348395,0.178134 12.845343,-0.898271 18.286521,-3.580843 2.05918,-1.015201 3.85364,-2.162653 6.64433,-4.248667 1.08994,-0.814718 2.25238,-1.612809 2.58321,-1.773537 0.59951,-0.291264 0.60218,-0.291327 0.8087,-0.01913 0.1694,0.223267 0.19353,0.585894 0.13222,1.987299 -0.0856,1.956841 -0.30387,2.889732 -1.05005,4.488108 -0.77787,1.666238 -1.77913,3.022377 -3.34157,4.525919 -4.00891,3.857779 -10.074727,6.374586 -17.786033,7.379712 -1.495971,0.194991 -7.345975,0.374939 -8.355481,0.257017 z"
     id="path38"
     inkscape:connector-curvature="0"
     transform="scale(0.74999998)" />
  <path
     style="fill:#ffc478;fill-opacity:0.99497485;stroke-width:0.13713586"
     d="m 6.0879938,57.806303 c -1.0167478,0.155494 -0.8682736,1.480024 -0.9352896,2.238984 0.012012,2.442673 -0.2799846,5.265145 1.4567809,7.247497 2.0595195,2.156397 5.2564149,2.459699 8.0608919,2.759742 7.211188,0.719656 14.575265,0.237058 21.620318,2.067968 6.570073,1.804443 11.962365,6.187676 17.409218,10.074242 7.125273,5.226146 14.833078,10.224328 23.659087,11.883199 6.044004,1.117404 12.317736,0.62739 18.255039,-0.856367 5.552841,-1.494243 11.155871,-4.24286 14.472011,-9.120588 1.62167,-2.417208 2.47125,-5.452988 2.01278,-8.349699 -0.16198,-0.842168 -1.16037,-0.499741 -1.62274,-0.13584 -3.52588,2.372478 -6.81267,5.187655 -10.829843,6.727445 -4.596104,1.879403 -9.550411,2.760777 -14.507461,2.622242 -3.38195,0.0617 -6.778231,-0.05035 -10.024472,-1.097951 C 68.914157,82.008345 63.769567,77.864269 58.687632,73.99637 52.730197,69.357191 46.495117,64.546689 38.988012,62.809084 31.845434,61.224174 24.470028,61.415142 17.247681,60.447734 13.909294,59.96055 10.448714,59.76881 7.4057836,58.180481 6.9858559,58.009478 6.5525471,57.794999 6.0879938,57.806303 Z"
     id="path855"
     inkscape:connector-curvature="0"
     transform="scale(0.74999998)" />
  <path
     style="fill:#fb6244;fill-opacity:1;stroke-width:0.13713586"
     d="m 53.139522,22.653454 c -1.868675,0.06884 -3.806946,0.182303 -5.561502,0.865134 -1.80442,1.267529 -2.072708,3.67531 -2.61201,5.644534 -1.794566,8.520034 -2.928384,17.163137 -4.665297,25.688868 -0.04681,1.500498 1.468722,2.392527 2.533434,3.16363 3.551554,2.144702 7.414327,3.716502 11.218722,5.348168 0.796457,0.339753 0.658729,-0.882371 0.800137,-1.334418 2.071375,-12.591818 4.13478,-25.186203 6.087725,-37.796711 -0.28356,-0.649949 -1.247813,-0.501533 -1.827336,-0.757494 -1.961061,-0.465563 -3.946821,-0.875694 -5.973873,-0.821711 z"
     id="path857"
     inkscape:connector-curvature="0"
     transform="scale(0.74999998)" />
  <path
     style="fill:#fb6244;fill-opacity:1;stroke-width:0.13713586"
     d="m 67.492182,23.904551 c -0.98,-0.243612 -1.124485,0.641155 -1.114337,1.395315 -2.001908,13.437091 -4.626713,26.77556 -6.498846,40.233186 -0.252795,0.961205 0.06274,1.936571 0.751033,2.635044 2.788527,3.168214 6.046635,5.919888 9.503159,8.332641 0.762357,0.387266 1.575344,1.235251 2.488194,0.949206 0.763926,-0.711371 0.727554,-1.923259 1.036806,-2.864729 0.884978,-3.636458 0.879097,-7.594173 2.80648,-10.903228 0.557811,-1.07491 1.687144,-2.161621 2.992883,-1.656613 1.394935,0.442421 1.206782,2.142289 1.223241,3.29635 -0.221041,3.737641 -1.089186,7.439968 -1.739107,11.142289 -0.184033,1.039942 -0.720996,2.557006 0.363731,3.2851 1.560122,0.620318 3.315214,0.386418 4.95939,0.50676 1.95683,-0.04444 3.959227,0.169413 5.888806,-0.195258 1.99081,-0.769811 2.477774,-3.119209 2.985735,-4.951001 1.404873,-6.41262 2.266493,-12.929982 3.370995,-19.398382 0.845744,-5.673308 1.963429,-11.325697 2.3064,-17.059754 -0.04743,-1.219641 0.187834,-2.536289 -0.276147,-3.687937 -1.245551,-1.257424 -2.953257,-1.949092 -4.454103,-2.85514 -2.022679,-1.041011 -4.031759,-2.17892 -6.186514,-2.915012 -0.89212,-0.0487 -0.828731,1.138836 -1.076288,1.727099 -1.345623,5.276817 -1.671686,10.773113 -3.234653,15.996372 -0.290317,1.050337 -1.010446,2.204138 -2.253904,2.14007 -0.912211,0.14437 -2.221184,-0.07153 -2.282026,-1.227259 -0.263159,-2.979374 0.408044,-5.925557 0.730058,-8.879573 0.398133,-3.181862 0.976398,-6.332469 1.501882,-9.49074 0.212733,-1.092065 -0.155537,-2.403182 -1.303058,-2.798161 -2.972665,-1.127833 -6.150047,-1.597972 -9.247646,-2.265563 -1.074759,-0.188871 -2.150634,-0.429434 -3.242164,-0.491082 z m 12.565877,29.715894 c 1.195619,-0.247044 2.368544,0.908752 2.086232,2.096144 -0.317228,1.689595 -2.327541,2.899971 -3.938101,2.286579 -0.887153,-0.800237 -0.644565,-2.218092 -0.406051,-3.252692 0.289246,-0.96429 1.389024,-1.143141 2.25792,-1.130031 z"
     id="path859"
     inkscape:connector-curvature="0"
     transform="scale(0.74999998)" />
  <path
     style="fill:#fb6244;fill-opacity:1;stroke-width:0.13713586"
     d="m 38.144037,24.051865 c -3.207749,0.357985 -6.299589,1.391131 -9.443459,2.087318 -0.653957,0.297355 -1.948307,0.08326 -1.920336,1.076449 -1.260091,8.676753 -2.609011,17.335118 -4.079257,25.977067 -0.162731,0.936031 -0.281574,2.273736 0.840761,2.652455 1.612428,0.461489 3.331176,0.363594 4.996888,0.413282 1.985559,-0.159105 4.085233,-0.03584 5.96166,-0.789602 0.616357,-0.608465 0.446626,-1.654968 0.664385,-2.446149 1.404321,-9.07654 2.978285,-18.125632 4.575973,-27.169037 0.214335,-0.772547 -0.177861,-1.683573 -1.044054,-1.764285 -0.181912,-0.03418 -0.367824,-0.04268 -0.552561,-0.0375 z"
     id="path861"
     inkscape:connector-curvature="0"
     transform="scale(0.74999998)" />
  <path
     style="fill:#fb6244;fill-opacity:1;stroke-width:0.13713586"
     d="m 19.895861,29.156961 c -1.886357,0.470497 -3.523238,1.655354 -5.117418,2.730933 -2.91855,2.173346 -5.6909047,4.616059 -7.9375412,7.489974 -1.071664,1.520453 -1.8236722,3.342257 -1.6318987,5.235269 -0.187802,2.499235 1.305805,4.727625 2.8468367,6.551987 1.6793097,1.849243 3.6100432,3.563947 5.8705932,4.65887 0.598808,0.320847 1.315344,0.153271 1.636524,-0.464441 1.022651,-1.866294 1.47012,-3.999093 2.03561,-6.037996 1.491192,-6.206187 2.334048,-12.555716 2.876104,-18.909213 0.01891,-0.477682 0.134694,-1.272601 -0.57881,-1.255383 z"
     id="path863"
     inkscape:connector-curvature="0"
     transform="scale(0.74999998)" />
  <path
     style="fill:#fb6244;fill-opacity:1;stroke-width:0.13713586"
     d="m 105.70263,41.177991 c -0.70515,0.334568 -0.6365,1.360817 -0.91906,2.004845 -2.02291,8.362038 -3.49481,16.848498 -4.899988,25.332965 -0.395791,2.832474 -0.97799,5.662735 -0.978288,8.532592 0.352247,0.685009 1.126776,-0.206653 1.615456,-0.408973 4.11233,-2.735009 7.89875,-6.28052 9.83271,-10.916788 1.61087,-3.270629 1.74116,-7.014722 1.53903,-10.584907 -0.57495,-4.694685 -2.38289,-9.223193 -5.06064,-13.109599 -0.29936,-0.336755 -0.61619,-0.865496 -1.12922,-0.850135 z"
     id="path865"
     inkscape:connector-curvature="0"
     transform="scale(0.74999998)" />
</svg>
